#N canvas 646 195 496 394 10;
#X obj 240 230 +~;
#X obj 228 348 dac~;
#X obj 239 287 *~ 0.2;
#X obj 286 184 *~ 1;
#X obj 307 145 r right;
#X obj 286 108 -~ 1;
#X obj 240 257 bp~ 360 3;
#X obj 346 14 r right2;
#X obj 286 52 phasor~ 300;
#X connect 0 0 6 0;
#X connect 2 0 1 0;
#X connect 2 0 1 1;
#X connect 3 0 0 1;
#X connect 4 0 3 1;
#X connect 5 0 3 0;
#X connect 6 0 2 0;
#X connect 7 0 8 1;
#X connect 8 0 5 0;
