#N canvas 471 214 450 300 10;
#X obj 134 261 dac~;
#X obj 130 97 osc~ 400;
#X obj 130 26 r osccontroller;
#X obj 198 97 r masterVol;
#X obj 177 143 *~ 1;
#X obj 156 202 bp~ 660 3;
#X connect 1 0 4 0;
#X connect 2 0 1 0;
#X connect 3 0 4 1;
#X connect 4 0 5 0;
#X connect 5 0 0 0;
