#N canvas 662 281 496 394 10;
#X obj 240 230 +~;
#X obj 238 319 dac~;
#X obj 190 96 -~ 0.5;
#X obj 276 96 -~ 0.5;
#X obj 239 287 *~ 0.2;
#X obj 240 257 bp~ 660 3;
#X obj 177 151 r left;
#X obj 276 63 phasor~ 100;
#X obj 189 64 phasor~ 100.5;
#X obj 144 179 *~ 1;
#X obj 286 184 *~ 1;
#X obj 264 2 r phasleft;
#X obj 318 155 r right;
#X obj 339 30 r phasright;
#X connect 0 0 5 0;
#X connect 2 0 9 0;
#X connect 3 0 10 0;
#X connect 4 0 1 0;
#X connect 4 0 1 1;
#X connect 5 0 4 0;
#X connect 6 0 9 1;
#X connect 7 0 3 0;
#X connect 8 0 2 0;
#X connect 9 0 0 0;
#X connect 10 0 0 1;
#X connect 11 0 8 1;
#X connect 12 0 10 1;
#X connect 13 0 7 1;
