#N canvas 228 82 759 570 10;
#X obj 161 422 dac~;
#X obj 193 298 r masterVol;
#X obj 193 185 r vol;
#X obj 172 211 *~ 1;
#X obj 172 327 *~ 1;
#X obj 172 268 *~ 1;
#X obj 193 242 r onoff;
#X obj 172 105 +~;
#X obj 174 386 *~ 0.2;
#X obj 172 148 -~ 0.5;
#X obj 284 262 r vibcontroller;
#X obj 97 50 phasor~ 400.5;
#X obj 187 50 phasor~ 400;
#X obj 41 9 r osccontrollerleft;
#X obj 187 9 r osccontrollerright;
#X obj 310 313 r attack;
#X obj 259 353 bp~ 870 3;
#X connect 1 0 4 1;
#X connect 2 0 3 1;
#X connect 3 0 5 0;
#X connect 4 0 16 0;
#X connect 5 0 4 0;
#X connect 6 0 5 1;
#X connect 7 0 9 0;
#X connect 8 0 0 0;
#X connect 8 0 0 1;
#X connect 9 0 3 0;
#X connect 10 0 16 1;
#X connect 11 0 7 0;
#X connect 12 0 7 1;
#X connect 13 0 11 0;
#X connect 14 0 12 0;
#X connect 15 0 16 2;
#X connect 16 0 8 0;
