#N canvas 639 182 538 495 10;
#N canvas 0 22 375 753 6s3cos1 0;
#X obj 48 826 dac~;
#X obj 115 200 osc~;
#X obj 64 200 osc~;
#X obj 6 200 osc~;
#X obj 63 419 clip~ -1 1;
#X obj 47 504 cos~;
#X obj 48 479 +~;
#X obj 6 348 *~ 0.3;
#X obj 63 348 *~ 0.3;
#X obj 113 348 *~ 0.3;
#X obj 47 772 *~ 0.16;
#X obj 64 392 +~;
#X obj 95 392 * -1;
#X obj 48 453 +~;
#X obj 64 172 *;
#X obj 115 171 *;
#X obj 64 146 t b f;
#X obj 115 146 t b f;
#X obj 7 419 *~ 0.25;
#X obj 47 557 *~;
#X obj 195 220 vline~;
#X obj 194 245 *~;
#X obj 194 267 *~;
#X obj 46 530 hip~ 10;
#X msg 195 196 0 \$1;
#X msg 237 196 1 0;
#X obj 237 43 * 3000;
#X obj 195 173 f 100;
#X obj 195 145 t b b;
#X obj 37 15 inlet;
#X obj 87 15 inlet;
#X obj 137 15 inlet;
#X obj 187 15 inlet;
#X obj 237 15 inlet;
#X obj -13 15 inlet;
#X obj -13 46 mtof;
#X obj -13 70 t b f f f;
#X obj 63 322 *~;
#X obj 114 324 *~;
#X obj 164 268 *~;
#X obj 136 268 *~;
#X obj 136 242 sig~;
#X obj 295 14 inlet;
#X obj 68 707 r onoff;
#X obj 47 735 *~ 1;
#X obj 68 580 r vol;
#X obj 47 608 *~ 1;
#X obj 47 674 *~ 1;
#X obj 68 645 r masterVol;
#X connect 1 0 38 0;
#X connect 2 0 37 0;
#X connect 3 0 7 0;
#X connect 4 0 13 1;
#X connect 5 0 23 0;
#X connect 6 0 5 0;
#X connect 7 0 11 0;
#X connect 7 0 18 0;
#X connect 8 0 11 0;
#X connect 9 0 11 0;
#X connect 10 0 0 0;
#X connect 10 0 0 1;
#X connect 11 0 4 0;
#X connect 12 0 4 1;
#X connect 13 0 6 0;
#X connect 14 0 2 0;
#X connect 15 0 1 0;
#X connect 16 0 14 0;
#X connect 16 1 14 1;
#X connect 17 0 15 0;
#X connect 17 1 15 1;
#X connect 18 0 13 0;
#X connect 19 0 46 0;
#X connect 20 0 21 0;
#X connect 20 0 21 1;
#X connect 20 0 40 1;
#X connect 21 0 22 0;
#X connect 21 0 22 1;
#X connect 21 0 39 1;
#X connect 22 0 19 1;
#X connect 23 0 19 0;
#X connect 24 0 20 0;
#X connect 25 0 20 0;
#X connect 26 0 27 1;
#X connect 27 0 24 0;
#X connect 28 0 27 0;
#X connect 28 1 25 0;
#X connect 29 0 16 0;
#X connect 30 0 17 0;
#X connect 31 0 4 2;
#X connect 31 0 12 0;
#X connect 32 0 6 1;
#X connect 33 0 26 0;
#X connect 34 0 35 0;
#X connect 35 0 36 0;
#X connect 36 0 28 0;
#X connect 36 1 3 0;
#X connect 36 2 14 0;
#X connect 36 3 15 0;
#X connect 37 0 8 0;
#X connect 38 0 9 0;
#X connect 39 0 38 1;
#X connect 40 0 37 1;
#X connect 41 0 40 0;
#X connect 41 0 39 0;
#X connect 42 0 41 0;
#X connect 43 0 44 1;
#X connect 44 0 10 0;
#X connect 45 0 46 1;
#X connect 46 0 47 0;
#X connect 47 0 44 0;
#X connect 48 0 47 1;
#X restore 17 211 pd 6s3cos1;
#X obj 26 122 vsl 10 40 1 4 0 1 empty empty fO1 0 -8 1 8 -260818 -1
-1 1000 1;
#X obj 61 122 vsl 10 40 1 4 0 1 empty empty fO2 0 -8 1 8 -260818 -1
-1 1400 1;
#X obj 125 137 vsl 10 40 0 0.25 0 1 empty empty shape 0 -8 1 8 -260818
-1 -1 1000 1;
#X obj 98 138 vsl 10 40 0 1 0 1 empty empty clip 0 -8 1 8 -260818 -1
-1 2800 1;
#X obj 159 137 vsl 10 40 0 1 0 1 empty empty decay 0 -8 1 8 -260818
-1 -1 900 1;
#N canvas 506 190 450 300 random 0;
#X obj 55 101 metro 100;
#X obj 55 214 outlet;
#X obj 81 46 loadbang;
#X msg 81 69 1;
#X obj 32 46 inlet;
#X obj 55 188 + 36;
#X obj 204 47 inlet;
#X obj 154 46 inlet;
#X obj 204 71 int;
#X obj 55 153 * 2;
#X obj 55 125 random 0;
#X connect 0 0 10 0;
#X connect 2 0 3 0;
#X connect 3 0 0 0;
#X connect 4 0 0 0;
#X connect 5 0 1 0;
#X connect 6 0 8 0;
#X connect 7 0 0 1;
#X connect 8 0 5 1;
#X connect 9 0 5 0;
#X connect 10 0 9 0;
#X restore 17 71 pd random midi notes;
#X obj 152 22 vsl 10 40 12 96 0 1 empty empty root 0 -8 1 8 -260818
-1 -1 1300 1;
#X obj 199 134 vsl 10 40 0 1 0 1 empty empty mod 0 -8 1 8 -260818 -1
-1 1200 1;
#X floatatom 75 -38 5 0 0 0 - - -;
#X floatatom 17 -25 5 0 0 0 - - -;
#X obj 17 -98 r pulse;
#X connect 1 0 0 1;
#X connect 2 0 0 2;
#X connect 3 0 0 4;
#X connect 4 0 0 3;
#X connect 5 0 0 5;
#X connect 6 0 0 0;
#X connect 7 0 6 2;
#X connect 8 0 0 6;
#X connect 9 0 6 1;
#X connect 10 0 6 0;
#X connect 11 0 10 0;
