#N canvas 471 214 450 300 10;
#X obj 130 249 dac~;
#X obj 130 97 osc~ 400;
#X obj 130 26 r osccontroller;
#X obj 200 188 r masterVol;
#X obj 172 211 *~ 1;
#X obj 172 151 *~ 1;
#X obj 200 128 r vol;
#X connect 1 0 5 0;
#X connect 2 0 1 0;
#X connect 3 0 4 1;
#X connect 4 0 0 0;
#X connect 5 0 4 0;
#X connect 6 0 5 1;
