#N canvas 471 214 450 300 10;
#X obj 161 274 dac~;
#X obj 130 26 r osccontroller;
#X obj 200 188 r masterVol;
#X obj 200 128 r vol;
#X obj 172 243 bp~ 660 3;
#X obj 130 97 osc~ 800;
#X obj 172 151 *~ 0.6;
#X obj 172 211 *~ 0.6;
#X connect 1 0 5 0;
#X connect 2 0 7 1;
#X connect 3 0 6 1;
#X connect 4 0 0 0;
#X connect 4 0 0 1;
#X connect 5 0 6 0;
#X connect 6 0 7 0;
#X connect 7 0 4 0;
