#N canvas 266 189 739 490 10;
#X obj 262 414 dac~;
#X obj 59 55 r osccontroller;
#X obj 167 169 r masterVol;
#X obj 130 199 *~ 1;
#X obj 132 132 r vol;
#X obj 86 162 *~ 0.1;
#X obj 40 125 phasor~ 300;
#X obj 279 49 r osccontroller;
#X obj 387 163 r masterVol;
#X obj 336 203 *~ 1;
#X obj 352 126 r vol;
#X obj 306 156 *~ 0.1;
#X obj 510 53 r osccontroller;
#X obj 618 167 r masterVol;
#X obj 581 197 *~ 1;
#X obj 583 130 r vol;
#X obj 537 160 *~ 0.1;
#X obj 260 119 phasor~ 200;
#X obj 491 123 phasor~ 100;
#X obj 293 254 +~;
#X obj 469 255 +~;
#X obj 384 301 +~;
#X obj 266 354 bp~ 460 3;
#X connect 1 0 6 0;
#X connect 2 0 3 1;
#X connect 3 0 19 0;
#X connect 4 0 5 1;
#X connect 5 0 3 0;
#X connect 6 0 5 0;
#X connect 7 0 17 0;
#X connect 8 0 9 1;
#X connect 9 0 19 1;
#X connect 10 0 11 1;
#X connect 11 0 9 0;
#X connect 12 0 18 0;
#X connect 13 0 14 1;
#X connect 14 0 20 0;
#X connect 15 0 16 1;
#X connect 16 0 14 0;
#X connect 17 0 11 0;
#X connect 18 0 16 0;
#X connect 19 0 21 0;
#X connect 20 0 21 1;
#X connect 21 0 22 0;
#X connect 22 0 0 0;
#X connect 22 0 0 1;
